<svg width="45" height="45" viewBox="0 0 45 45" fill="none" xmlns="http://www.w3.org/2000/svg">
<path d="M36 4.5H29.25V6.75H15.75V4.5H9V38.25H15.75V36H29.25V38.25H36V4.5ZM13.5 6.75V9H11.25V6.75H13.5ZM33.75 6.75V9H31.5V6.75H33.75ZM29.25 9V20.25H15.75V9H29.25ZM13.5 11.25V13.5H11.25V11.25H13.5ZM33.75 11.25V13.5H31.5V11.25H33.75ZM13.5 15.75V18H11.25V15.75H13.5ZM33.75 15.75V18H31.5V15.75H33.75ZM13.5 20.25V22.5H11.25V20.25H13.5ZM33.75 20.25V22.5H31.5V20.25H33.75ZM29.25 22.5V33.75H15.75V22.5H29.25ZM13.5 24.75V27H11.25V24.75H13.5ZM33.75 24.75V27H31.5V24.75H33.75ZM13.5 29.25V31.5H11.25V29.25H13.5ZM33.75 29.25V31.5H31.5V29.25H33.75ZM13.5 33.75V36H11.25V33.75H13.5ZM33.75 33.75V36H31.5V33.75H33.75Z" fill="white"/>
</svg>
