<svg width="38" height="42" viewBox="0 0 38 42" fill="none" xmlns="http://www.w3.org/2000/svg">
<circle cx="15" cy="27" r="15" fill="#FF7B42"/>
<path d="M38 0H31.25V2.25H17.75V0H11V33.75H17.75V31.5H31.25V33.75H38V0ZM15.5 2.25V4.5H13.25V2.25H15.5ZM35.75 2.25V4.5H33.5V2.25H35.75ZM31.25 4.5V15.75H17.75V4.5H31.25ZM15.5 6.75V9H13.25V6.75H15.5ZM35.75 6.75V9H33.5V6.75H35.75ZM15.5 11.25V13.5H13.25V11.25H15.5ZM35.75 11.25V13.5H33.5V11.25H35.75ZM15.5 15.75V18H13.25V15.75H15.5ZM35.75 15.75V18H33.5V15.75H35.75ZM31.25 18V29.25H17.75V18H31.25ZM15.5 20.25V22.5H13.25V20.25H15.5ZM35.75 20.25V22.5H33.5V20.25H35.75ZM15.5 24.75V27H13.25V24.75H15.5ZM35.75 24.75V27H33.5V24.75H35.75ZM15.5 29.25V31.5H13.25V29.25H15.5ZM35.75 29.25V31.5H33.5V29.25H35.75Z" fill="black"/>
</svg>
