<svg width="46" height="49" viewBox="0 0 46 49" fill="none" xmlns="http://www.w3.org/2000/svg">
<circle cx="15" cy="34" r="15" fill="#FF7B42"/>
<path fill-rule="evenodd" clip-rule="evenodd" d="M26.7569 12.7293C27.1106 12.847 27.4032 13.1004 27.5702 13.4337C27.7372 13.767 27.765 14.153 27.6475 14.5068L22.0225 31.3818C21.901 31.731 21.6469 32.0183 21.3151 32.1816C20.9834 32.3448 20.6007 32.3708 20.2499 32.2539C19.8991 32.1371 19.6085 31.8868 19.4409 31.5572C19.2733 31.2277 19.2422 30.8454 19.3544 30.4931L24.9794 13.6181C25.0975 13.2647 25.351 12.9726 25.6842 12.8059C26.0175 12.6393 26.4033 12.6117 26.7569 12.7293ZM31.0225 14.8687C31.1628 14.7484 31.3254 14.657 31.5011 14.5997C31.6768 14.5423 31.862 14.5202 32.0462 14.5344C32.2305 14.5487 32.4101 14.5992 32.5748 14.6829C32.7395 14.7666 32.8861 14.882 33.0062 15.0224L38.6312 21.5849C38.8496 21.8398 38.9696 22.1643 38.9696 22.4999C38.9696 22.8355 38.8496 23.1601 38.6312 23.4149L33.0062 29.9774C32.7636 30.2609 32.4182 30.4363 32.0462 30.4652C31.6742 30.494 31.3059 30.3739 31.0225 30.1312C30.739 29.8885 30.5636 29.5432 30.5348 29.1712C30.5059 28.7991 30.6261 28.4309 30.8687 28.1474L35.7119 22.4999L30.8725 16.8524C30.6298 16.5696 30.5093 16.2021 30.5374 15.8305C30.5655 15.4589 30.74 15.1136 31.0225 14.8706M15.9775 14.8687C16.1178 14.9889 16.233 15.1356 16.3166 15.3004C16.4001 15.4652 16.4504 15.6449 16.4645 15.8291C16.4786 16.0133 16.4563 16.1985 16.3988 16.3741C16.3413 16.5497 16.2497 16.7122 16.1294 16.8524L11.29 22.4999L16.1294 28.1474C16.3579 28.4321 16.4667 28.7945 16.4329 29.158C16.3991 29.5214 16.2253 29.8575 15.9482 30.0952C15.6711 30.3328 15.3125 30.4534 14.9481 30.4314C14.5837 30.4095 14.2422 30.2467 13.9956 29.9774L8.37062 23.4149C8.15225 23.1601 8.03223 22.8355 8.03223 22.4999C8.03223 22.1643 8.15225 21.8398 8.37062 21.5849L13.9956 15.0224C14.2384 14.7397 14.5835 14.5648 14.9551 14.5364C15.3267 14.5079 15.6945 14.6281 15.9775 14.8706" fill="black"/>
</svg>
