<svg width="32" height="30" viewBox="0 0 32 30" fill="none" xmlns="http://www.w3.org/2000/svg">
<circle cx="15" cy="15" r="15" fill="#FF7B42"/>
<g clip-path="url(#clip0_635_1261)">
<path opacity="0.931" fill-rule="evenodd" clip-rule="evenodd" d="M14.3633 7.13662C15.6701 7.04398 16.523 7.6169 16.9219 8.85537C17.1123 9.92586 16.7542 10.7527 15.8477 11.3358C14.8132 11.8149 13.8822 11.6652 13.0547 10.8866C12.3779 10.0061 12.3128 9.0816 12.8594 8.11319C13.2399 7.5946 13.7412 7.26908 14.3633 7.13662ZM14.4805 7.80069C15.2571 7.74286 15.8235 8.05536 16.1797 8.73819C16.4732 9.66776 16.1933 10.3644 15.3398 10.828C14.4268 11.1139 13.7432 10.8339 13.2891 9.98819C12.983 8.86806 13.3802 8.13889 14.4805 7.80069Z" fill="black"/>
<path opacity="0.945" fill-rule="evenodd" clip-rule="evenodd" d="M19.3633 7.13672C21.0039 7.13021 22.6446 7.13672 24.2852 7.15625C24.6501 7.28686 24.878 7.54076 24.9687 7.91797C24.9948 8.88151 24.9948 9.84505 24.9687 10.8086C24.8743 11.2025 24.6334 11.4564 24.2461 11.5703C23.0482 11.5833 21.8503 11.5964 20.6523 11.6094C20.2634 11.9071 19.8857 12.2196 19.5195 12.5469C19.1519 12.7394 18.8719 12.6548 18.6797 12.293C18.6536 10.7956 18.6536 9.29818 18.6797 7.80078C18.8002 7.46543 19.028 7.24407 19.3633 7.13672ZM19.5195 7.80078C21.0854 7.78171 22.6479 7.80124 24.207 7.85937C24.2445 7.91482 24.2771 7.97341 24.3047 8.03516C24.3307 8.92057 24.3307 9.80599 24.3047 10.6914C24.2744 10.7867 24.2159 10.8583 24.1289 10.9062C22.918 10.9193 21.707 10.9323 20.4961 10.9453C20.3678 10.975 20.2506 11.027 20.1445 11.1016C19.8885 11.3433 19.6216 11.5712 19.3437 11.7852C19.3177 10.5091 19.3177 9.23307 19.3437 7.95703C19.3983 7.89569 19.4569 7.84361 19.5195 7.80078Z" fill="black"/>
<path opacity="0.931" fill-rule="evenodd" clip-rule="evenodd" d="M28.8555 7.13662C30.1623 7.04398 31.0152 7.6169 31.4141 8.85537C31.6047 10.0039 31.1946 10.8567 30.1836 11.414C29.1882 11.8049 28.3093 11.6291 27.5469 10.8866C26.8389 9.95039 26.7999 8.98685 27.4297 7.996C27.8046 7.53514 28.2798 7.24868 28.8555 7.13662ZM28.9727 7.80069C29.7493 7.74286 30.3157 8.05536 30.6719 8.73819C30.9654 9.66792 30.6854 10.3645 29.832 10.828C28.919 11.1139 28.2354 10.8339 27.7812 9.98819C27.4752 8.86821 27.8723 8.13905 28.9727 7.80069Z" fill="black"/>
<path opacity="0.938" fill-rule="evenodd" clip-rule="evenodd" d="M20.2617 8.46484C21.3165 8.45833 22.3712 8.46484 23.4258 8.48437C23.6218 8.62975 23.6543 8.80553 23.5234 9.01172C23.4777 9.06614 23.4191 9.09869 23.3477 9.10937C22.332 9.13542 21.3164 9.13542 20.3008 9.10937C20.0054 8.90731 19.9923 8.69247 20.2617 8.46484Z" fill="black"/>
<path opacity="0.928" fill-rule="evenodd" clip-rule="evenodd" d="M20.3008 9.59765C20.8478 9.59115 21.3947 9.59766 21.9414 9.61719C22.1232 9.73033 22.1818 9.8931 22.1172 10.1055C22.0698 10.166 22.0112 10.2115 21.9414 10.2422C21.3815 10.2682 20.8216 10.2682 20.2617 10.2422C20.0612 10.1055 20.0221 9.92974 20.1445 9.71484C20.1993 9.67497 20.2514 9.63591 20.3008 9.59765Z" fill="black"/>
<path opacity="0.937" fill-rule="evenodd" clip-rule="evenodd" d="M11.9805 21.5117C11.9805 21.1992 11.9805 20.8867 11.9805 20.5742C12.1738 18.2368 12.3626 15.893 12.5469 13.5429C12.6923 12.9417 13.0634 12.5576 13.6602 12.3906C14.363 12.2515 14.9294 12.4664 15.3594 13.0351C15.8704 13.888 16.3913 14.7344 16.9219 15.5742C17.797 15.2086 18.6759 14.8506 19.5586 14.5C20.2326 14.2884 20.812 14.4381 21.2969 14.9492C21.7968 15.7313 21.7252 16.4539 21.082 17.1172C20.9518 17.1953 20.8216 17.2734 20.6914 17.3515C19.3732 17.8647 18.0581 18.3856 16.7461 18.914C16.4753 18.9729 16.2018 18.9859 15.9258 18.9531C15.8325 18.9413 15.7478 18.9087 15.6719 18.8554C15.6524 19.0634 15.6459 19.2717 15.6523 19.4804C16.487 19.5652 17.3203 19.6629 18.1523 19.7734C18.9446 20.0095 19.4068 20.5368 19.5391 21.3554C19.5651 23.1002 19.5651 24.845 19.5391 26.5898C19.5284 26.6613 19.4958 26.7198 19.4414 26.7656C19.2371 26.868 19.0614 26.8354 18.9141 26.6679C18.9011 24.9362 18.888 23.2044 18.875 21.4726C18.8073 20.9361 18.5143 20.5911 17.9961 20.4375C17.0294 20.3199 16.0659 20.1897 15.1055 20.0468C15.0585 20.0116 15.026 19.966 15.0078 19.9101C14.9948 19.3632 14.9818 18.8164 14.9688 18.2695C14.5758 17.669 14.2177 17.0504 13.8945 16.414C13.9718 16.115 14.1541 16.0238 14.4414 16.1406C14.8402 16.7493 15.2243 17.3677 15.5938 17.9961C15.9134 18.3236 16.2845 18.3952 16.707 18.2109C17.9992 17.6977 19.2883 17.1769 20.5742 16.6484C21.0774 16.1914 21.0905 15.7226 20.6133 15.2422C20.3701 15.077 20.1097 15.038 19.832 15.125C18.8586 15.5232 17.882 15.9139 16.9023 16.2968C16.722 16.3475 16.5723 16.3019 16.4531 16.1601C15.9193 15.2747 15.3854 14.3893 14.8516 13.5039C14.5454 13.0416 14.1352 12.9179 13.6211 13.1328C13.2899 13.3459 13.1402 13.652 13.1719 14.0507C12.9687 16.4972 12.7994 18.9451 12.6641 21.3945C12.7815 21.7984 13.0354 22.0784 13.4258 22.2343C14.3738 22.3805 15.3243 22.5107 16.2773 22.625C16.3391 22.6526 16.3977 22.6851 16.4531 22.7226C16.5177 24.0344 16.5307 25.3495 16.4922 26.6679C16.3449 26.8354 16.1691 26.868 15.9648 26.7656C15.9273 26.7102 15.8948 26.6516 15.8672 26.5898C15.8477 25.4701 15.8411 24.3503 15.8477 23.2304C15.0517 23.1488 14.2575 23.0512 13.4648 22.9375C12.6806 22.7586 12.1858 22.2833 11.9805 21.5117Z" fill="black"/>
<path opacity="0.94" fill-rule="evenodd" clip-rule="evenodd" d="M31.9805 20.2616C31.9805 20.6783 31.9805 21.0949 31.9805 21.5116C31.7752 22.2832 31.2804 22.7585 30.4961 22.9374C29.7187 23.0296 28.944 23.1272 28.1719 23.2304C28.1345 24.3499 28.1084 25.4697 28.0938 26.5897C28.0018 26.8083 27.839 26.8799 27.6055 26.8046C27.5599 26.759 27.5143 26.7135 27.4688 26.6679C27.4414 25.3654 27.4544 24.0633 27.5078 22.7616C27.5718 22.6714 27.6564 22.6128 27.7617 22.5858C28.6888 22.4857 29.6132 22.3685 30.5352 22.2343C30.9255 22.0783 31.1794 21.7983 31.2969 21.3944C31.2341 19.0761 31.143 16.7584 31.0234 14.4413C31.0348 13.8974 30.7939 13.5133 30.3008 13.289C29.7948 13.1371 29.3716 13.2608 29.0313 13.6601C28.4583 14.5976 27.8854 15.5351 27.3125 16.4726C27.2516 16.5452 27.18 16.6038 27.0977 16.6483C26.0093 16.8429 24.9155 17.0122 23.8164 17.1562C23.1758 17.3415 22.9609 17.7516 23.1719 18.3866C23.3788 18.7378 23.6848 18.8875 24.0898 18.8358C25.2883 18.6702 26.4862 18.501 27.6836 18.328C27.9564 18.3067 28.1842 18.196 28.3672 17.996C28.7366 17.3677 29.1207 16.7492 29.5195 16.1405C29.8069 16.0238 29.9891 16.1149 30.0664 16.414C29.7432 17.0504 29.3851 17.6689 28.9922 18.2694C28.9792 18.8163 28.9661 19.3632 28.9531 19.9101C28.935 19.966 28.9024 20.0115 28.8555 20.0468C27.8951 20.1896 26.9315 20.3198 25.9648 20.4374C25.4646 20.5861 25.1716 20.9181 25.0859 21.4335C25.0729 23.1783 25.0599 24.9231 25.0469 26.6679C24.8996 26.8354 24.7238 26.8679 24.5195 26.7655C24.4651 26.7198 24.4325 26.6612 24.4219 26.5897C24.3958 24.8449 24.3958 23.1002 24.4219 21.3554C24.5541 20.5367 25.0164 20.0094 25.8086 19.7733C26.6406 19.6628 27.474 19.5652 28.3086 19.4804C28.3151 19.2716 28.3086 19.0633 28.2891 18.8554C28.1369 18.9341 27.9742 18.9797 27.8008 18.9921C26.5129 19.1775 25.2238 19.3533 23.9336 19.5194C23.623 19.5179 23.3365 19.4333 23.0742 19.2655C22.762 19.246 22.4495 19.2395 22.1367 19.246C22.1432 21.72 22.1367 24.194 22.1172 26.6679C21.9699 26.8354 21.7941 26.8679 21.5898 26.7655C21.5354 26.7198 21.5029 26.6612 21.4922 26.5897C21.4727 24.1419 21.4661 21.694 21.4727 19.246C20.5611 19.2525 19.6497 19.246 18.7383 19.2265C18.5198 19.1326 18.4482 18.9699 18.5234 18.7382C18.569 18.6926 18.6146 18.6471 18.6602 18.6015C19.9492 18.5885 21.2383 18.5754 22.5273 18.5624C22.2898 17.885 22.433 17.2991 22.957 16.8046C23.1284 16.6928 23.3107 16.6017 23.5039 16.5312C24.6007 16.3726 25.6945 16.2033 26.7852 16.0233C27.3304 15.1347 27.8708 14.2427 28.4063 13.3476C28.9629 12.6109 29.6855 12.383 30.5742 12.664C31.1443 12.9085 31.5023 13.3316 31.6484 13.9335C31.7629 16.0487 31.8736 18.158 31.9805 20.2616Z" fill="black"/>
</g>
<defs>
<clipPath id="clip0_635_1261">
<rect width="20" height="20" fill="white" transform="translate(12 7)"/>
</clipPath>
</defs>
</svg>
