<svg width="46" height="49" viewBox="0 0 46 49" fill="none" xmlns="http://www.w3.org/2000/svg">
<circle cx="15" cy="34" r="15" fill="#FF7B42"/>
<g clip-path="url(#clip0_632_1229)">
<path d="M41.625 10.25C41.1952 9.97194 40.7037 9.80372 40.1937 9.76013C39.6837 9.71654 39.1707 9.7989 38.7 9.99998L23.275 16.075C22.9098 16.2236 22.5193 16.3 22.125 16.3H12.25C11.4212 16.3 10.6263 16.6292 10.0403 17.2153C9.45424 17.8013 9.125 18.5962 9.125 19.425V19.675H6V27.175H9.125V27.5C9.14458 28.3157 9.48245 29.0914 10.0664 29.6614C10.6503 30.2313 11.434 30.5502 12.25 30.55L16 38.5C16.2539 39.0353 16.6537 39.4882 17.1534 39.8066C17.6531 40.125 18.2325 40.296 18.825 40.3H20.4C21.2245 40.2934 22.0129 39.9612 22.5936 39.3759C23.1742 38.7906 23.5 37.9995 23.5 37.175V30.85L38.7 36.925C39.0739 37.0738 39.4726 37.1501 39.875 37.15C40.4993 37.1399 41.1072 36.9488 41.625 36.6C42.0362 36.3223 42.3754 35.9508 42.6145 35.5161C42.8536 35.0813 42.9857 34.5959 43 34.1V12.825C42.9977 12.3163 42.8713 11.8158 42.6316 11.3671C42.392 10.9183 42.0465 10.5349 41.625 10.25ZM20.375 19.425V27.5H12.25V19.425H20.375ZM20.375 37.175H18.8L15.725 30.55H20.375V37.175ZM24.425 27.875C24.1282 27.7233 23.8187 27.5978 23.5 27.5V19.25C23.8156 19.1849 24.1251 19.0929 24.425 18.975L39.875 12.825V34.025L24.425 27.875ZM43.075 20.3V26.55C43.9038 26.55 44.6987 26.2207 45.2847 25.6347C45.8708 25.0486 46.2 24.2538 46.2 23.425C46.2 22.5962 45.8708 21.8013 45.2847 21.2153C44.6987 20.6292 43.9038 20.3 43.075 20.3Z" fill="black"/>
</g>
<defs>
<clipPath id="clip0_632_1229">
<rect width="40" height="40" fill="white" transform="translate(6 5)"/>
</clipPath>
</defs>
</svg>
