<svg width="38" height="34" viewBox="0 0 38 34" fill="none" xmlns="http://www.w3.org/2000/svg">
<circle cx="15" cy="19" r="15" fill="#FF7B42"/>
<path opacity="0.921" fill-rule="evenodd" clip-rule="evenodd" d="M12.7022 2.35248C15.844 2.20882 18.0032 3.58382 19.1797 6.47748C19.9747 9.57928 19.0402 11.9963 16.376 13.7285C14.0732 14.8416 11.8603 14.6913 9.73731 13.2773C7.43345 11.2838 6.79966 8.84536 7.83594 5.96185C8.82809 3.9034 10.4502 2.70028 12.7022 2.35248ZM12.7666 3.31927C11.0905 3.61545 9.81215 4.49631 8.93165 5.96185C7.97435 7.95964 8.14622 9.85031 9.44727 11.6337C11.2794 13.5881 13.4171 14.0071 15.8604 12.8906C18.0841 11.4603 18.8897 9.45154 18.2773 6.8642C17.2905 4.37725 15.4536 3.19561 12.7666 3.31927Z" fill="black"/>
<path opacity="0.916" fill-rule="evenodd" clip-rule="evenodd" d="M13.3467 4.41504C13.5438 4.43416 13.705 4.52009 13.8301 4.67285C13.8515 4.88769 13.8731 5.10254 13.8945 5.31738C14.3619 5.45428 14.7701 5.69061 15.1191 6.02637C15.3416 6.47522 15.2127 6.75449 14.7324 6.86426C14.4234 6.68559 14.1119 6.503 13.7978 6.31641C13.1698 6.14165 12.7078 6.34575 12.4121 6.92871C12.3745 7.10641 12.396 7.27824 12.4766 7.44434C12.8376 7.86567 13.2994 8.04826 13.8623 7.99219C15.2712 8.45715 15.6901 9.3702 15.1191 10.7314C14.8314 11.159 14.4339 11.4168 13.9268 11.5049C14.0181 11.9675 13.8463 12.2683 13.4111 12.4072C13.0138 12.2794 12.8419 12.0001 12.8955 11.5693C12.451 11.4386 12.075 11.2023 11.7676 10.8604C11.5776 10.1751 11.8247 9.9495 12.5088 10.1836C12.8529 10.5785 13.2826 10.7074 13.7978 10.5703C14.5538 10.1504 14.6182 9.65624 13.9912 9.08789C13.5939 8.96002 13.1857 8.87404 12.7666 8.83008C11.4486 8.24929 11.1156 7.31472 11.7676 6.02637C12.0713 5.69209 12.4365 5.45576 12.8633 5.31738C12.88 5.0757 12.923 4.83937 12.9922 4.6084C13.1131 4.53694 13.2312 4.47249 13.3467 4.41504Z" fill="black"/>
<path opacity="0.901" fill-rule="evenodd" clip-rule="evenodd" d="M32.1025 8.34668C32.6359 8.2955 32.84 8.53185 32.7148 9.05566C32.2772 9.83445 31.8153 10.5971 31.3291 11.3437C30.7598 11.4619 30.5342 11.2363 30.6523 10.667C31.0605 9.958 31.4688 9.24902 31.877 8.54003C31.9508 8.46682 32.026 8.40236 32.1025 8.34668Z" fill="black"/>
<path opacity="0.922" fill-rule="evenodd" clip-rule="evenodd" d="M25.0127 8.60456C25.7564 8.55512 26.3902 8.79147 26.9141 9.31354C27.7012 10.5974 28.4638 11.8973 29.2021 13.213C30.4723 12.7555 31.5143 13.067 32.3281 14.1475C32.8973 15.4047 32.6503 16.4682 31.5869 17.338C32.3143 18.5885 33.0341 19.8453 33.7461 21.1085C34.1139 22.1627 33.8668 23.0328 33.0049 23.7188C31.7948 24.3134 30.8065 24.0663 30.04 22.9776C27.5235 22.8858 25.0958 23.3048 22.7568 24.2344C23.1894 24.831 23.6299 25.4219 24.0781 26.0069C24.288 26.417 24.288 26.8251 24.0781 27.2315C23.8686 27.4843 23.6215 27.6884 23.3369 27.8438C23.8418 28.5206 24.3467 29.1973 24.8516 29.8741C25.0964 30.3945 25.0535 30.8887 24.7227 31.3565C24.4563 31.5583 24.2092 31.7839 23.9814 32.0333C23.6126 32.3655 23.1829 32.4728 22.6924 32.3555C22.4845 32.2783 22.3019 32.1602 22.1445 32.001C20.8397 30.2723 19.5507 28.532 18.2773 26.7803C17.0382 27.4661 15.7599 27.5413 14.4424 27.0059C12.5426 25.8627 11.9089 24.2192 12.541 22.0753C12.7919 21.4592 13.168 20.9328 13.6689 20.4962C14.7479 19.8259 15.8436 19.1814 16.9561 18.5626C17.1107 18.5167 17.261 18.5275 17.4072 18.5948C19.966 16.7713 22.0285 14.5047 23.5947 11.795C23.0698 10.7985 23.1987 9.8962 23.9814 9.08796C24.3064 8.87159 24.6502 8.71045 25.0127 8.60456ZM25.1416 9.57136C25.6646 9.55885 26.062 9.77367 26.334 10.2159C28.5275 14.0414 30.7189 17.8656 32.9082 21.6885C33.007 22.5005 32.6525 22.9732 31.8447 23.1065C31.4987 23.0595 31.2086 22.9092 30.9746 22.6553C28.724 18.7772 26.4896 14.8885 24.2715 10.9893C24.1529 10.2604 24.4429 9.78772 25.1416 9.57136ZM24.1104 12.8585C25.9029 15.841 27.6646 18.8489 29.3955 21.8819C26.3291 22.0497 23.3965 22.7587 20.5977 24.0089C19.7265 22.4936 18.8564 20.9789 17.9873 19.4649C19.9921 17.9296 21.7645 16.1571 23.3047 14.1475C23.5901 13.7268 23.8587 13.2972 24.1104 12.8585ZM30.1689 13.9542C31.2521 14.0382 31.7355 14.6182 31.6191 15.6944C31.5189 15.9873 31.347 16.2236 31.1035 16.4034C30.6019 15.6693 30.1399 14.9067 29.7178 14.1153C29.8792 14.0703 30.0295 14.0166 30.1689 13.9542ZM16.8916 19.6905C17.9107 21.3409 18.8989 23.0167 19.8564 24.7178C18.9966 25.2553 18.1158 25.7602 17.2139 26.2325C15.5818 26.6782 14.3464 26.1733 13.5078 24.7178C12.9883 23.3048 13.2998 22.1125 14.4424 21.1407C15.2735 20.6719 16.0899 20.1885 16.8916 19.6905ZM21.6611 24.5889C21.7817 24.6121 21.8784 24.6765 21.9512 24.7823C22.4041 25.3964 22.8446 26.0195 23.2725 26.6514C23.1204 26.8031 22.9485 26.932 22.7568 27.0382C22.2197 26.3077 21.6826 25.5772 21.1455 24.8467C21.3228 24.7581 21.4946 24.6722 21.6611 24.5889ZM20.3721 25.5557C21.5846 27.1627 22.7985 28.774 24.0137 30.3897C24.0567 30.4756 24.0567 30.5616 24.0137 30.6475C23.7268 30.8721 23.4582 31.1191 23.208 31.3887C23.0661 31.4419 22.948 31.4097 22.8535 31.2921C21.6306 29.6287 20.3952 27.9743 19.1475 26.3292C19.5466 26.0545 19.9548 25.7967 20.3721 25.5557Z" fill="black"/>
<path opacity="0.9" fill-rule="evenodd" clip-rule="evenodd" d="M35.9697 11.5049C36.5516 11.5676 36.702 11.8576 36.4209 12.375C35.7224 12.7995 35.0134 13.2077 34.2939 13.5996C33.6742 13.6022 33.5023 13.3228 33.7783 12.7617C34.5044 12.3238 35.2348 11.9049 35.9697 11.5049Z" fill="black"/>
<path opacity="0.911" fill-rule="evenodd" clip-rule="evenodd" d="M34.3584 16.4032C35.2825 16.3924 36.2063 16.4032 37.1299 16.4354C37.2221 16.4654 37.2973 16.5192 37.3555 16.5966C37.3985 16.7685 37.3985 16.9403 37.3555 17.1122C37.3232 17.2303 37.248 17.3056 37.1299 17.3378C36.2061 17.3808 35.2822 17.3808 34.3584 17.3378C33.9329 17.0265 33.9329 16.715 34.3584 16.4032Z" fill="black"/>
</svg>
